<?xml version="1.0" encoding="UTF-8"?>
<!DOCTYPE svg PUBLIC "-//W3C//DTD SVG 1.1//EN" "http://www.w3.org/Graphics/SVG/1.1/DTD/svg11.dtd">
<!-- Creator: CorelDRAW 2021 (64-Bit) -->
<svg xmlns="http://www.w3.org/2000/svg" xml:space="preserve" width="210mm" height="297mm" version="1.1" style="shape-rendering:geometricPrecision; text-rendering:geometricPrecision; image-rendering:optimizeQuality; fill-rule:evenodd; clip-rule:evenodd"
viewBox="0 0 21000 29700"
 xmlns:xlink="http://www.w3.org/1999/xlink"
 xmlns:xodm="http://www.corel.com/coreldraw/odm/2003">
 <defs>
  <style type="text/css">
   <![CDATA[
    .str1 {stroke:black;stroke-width:3.53;stroke-miterlimit:22.9256}
    .str0 {stroke:black;stroke-width:7.62;stroke-linecap:round;stroke-linejoin:round;stroke-miterlimit:22.9256}
    .fil1 {fill:#CCCCFF}
    .fil0 {fill:#CCCCFF;fill-rule:nonzero}
   ]]>
  </style>
 </defs>
 <g id="Capa_x0020_1">
  <metadata id="CorelCorpID_0Corel-Layer"/>
  <g id="_1677719726608">
   <path class="fil0 str0" d="M8866.73 15042.17l349.75 0c125.84,0 223.24,34.8 291.74,104.56 68.64,69.6 102.98,153.65 102.98,252.01 0,62.77 -15.58,121.9 -46.9,177.68 -31.15,55.78 -76.76,98.99 -136.98,129.81 -60.21,30.99 -132.99,46.4 -218.33,46.4l-342.26 0 0 -710.46zm314.29 271.9l0 166.67 7.95 0c37.81,0 65.16,-6.5 82.16,-19.69 16.83,-13.19 25.25,-34.96 25.25,-64.99 0,-54.68 -31.78,-81.99 -95.31,-81.99l-20.05 0zm1239.7 260.26l0 178.3 -589.7 0 0 -710.46 589.7 0 0 178.3 -275.54 0 0 88.03 191.79 0 0 178.3 -191.79 0 0 87.53 275.54 0zm878.95 -468.26l-131.9 250.88c-38.45,-13.32 -80.87,-20.02 -127.43,-20.02 -66.75,0 -100.13,18.13 -100.13,54.52 0,17.3 9.22,30.83 27.98,40.67 18.59,9.71 45.13,14.61 79.6,14.61 46.57,0 86.6,-8.41 119.98,-25.08l131.9 269.01c-37.35,22.4 -82.32,40.2 -135.09,53.55 -52.72,13.36 -103.1,20.02 -151.26,20.02 -120.76,0 -216.91,-34.8 -288.39,-104.39 -71.52,-69.77 -107.28,-155.57 -107.28,-257.28 0,-107.72 37.18,-196.57 111.72,-266.46 74.37,-70.1 169.05,-105.06 283.95,-105.06 49.58,0 100.89,6.69 153.82,20.18 52.92,13.52 97.1,31.78 132.53,54.85zm541.44 658.16c-101.55,0 -187.65,-35.59 -258.21,-106.78 -70.56,-71.19 -105.82,-158.12 -105.82,-260.43 0,-102.18 35.26,-188.64 105.82,-259.66 70.56,-70.86 156.66,-106.32 258.21,-106.32 101.71,0 187.98,35.46 258.54,106.32 70.56,71.02 105.82,157.48 105.82,259.66 0,102.31 -35.26,189.24 -105.82,260.43 -70.56,71.19 -156.83,106.78 -258.54,106.78zm0 -460.83c-20.19,0 -37.02,6.99 -50.38,21.14 -13.35,14.15 -20.02,31.95 -20.02,53.39 0,21.31 6.67,39.11 20.02,53.23 13.36,14.15 30.19,21.14 50.38,21.14 20.35,0 37.35,-6.99 50.7,-21.14 13.33,-14.12 20.02,-31.92 20.02,-53.23 0,-21.44 -6.69,-39.24 -20.02,-53.39 -13.35,-14.15 -30.35,-21.14 -50.7,-21.14z"/>
   <path class="fil1 str1" d="M9447.5 13265.08c-43.18,21.78 -839.39,1087.35 -876.34,1196 40.73,-27.77 70.28,-62.01 109.9,-97.76l775.98 -761.28 948.26 960.8c88.22,87.2 59.77,67.49 253.12,66.68 109.42,-0.46 219.63,0.16 328.95,-1.97l692.73 -879.1c24.24,-32.05 71.09,-104.14 103.42,-127.67l307.44 419.85c53.64,72.67 99.57,134.83 155.55,206.83 49.19,63.25 109,156.09 168.08,207.09 -18.67,-77.26 -239.13,-510.36 -289.19,-610.24 -99.04,-197.63 -203.43,-403.74 -313.27,-592.25 -78.1,-11.46 -520.05,57.3 -633.31,71.29l-1273.52 156.69c-47.63,5.55 -108.38,17.57 -153.57,19.7 -65.05,3.05 -120.92,-78.92 -209.81,-152.27 -32.88,-27.11 -55.85,-52.3 -94.42,-82.39z"/>
   <polygon class="fil1 str1" points="9468.13,14714.56 9743.93,14743.98 9745.03,14465.51 9471,14466.66 "/>
   <polygon class="fil1 str1" points="9472.78,14182.93 9467.3,14430.37 9740.78,14426.38 9745.77,14151.77 "/>
   <path class="fil1 str1" d="M9150.59 14682.38l273.78 27.51 1.3 -241.71 -269.89 -0.21c-15.41,43.7 -10.91,164.47 -5.19,214.41z"/>
   <polygon class="fil1 str1" points="9152.48,14226.54 9147.12,14438.38 9426,14432.29 9425.57,14191.32 "/>
   <path class="fil1 str1" d="M11530.69 14418.32l220.97 3.58c2.35,-54.86 12.86,-148.5 -6.56,-187.71 -31.47,-18.89 -169.42,-36.62 -214.92,-27.94l0.51 212.07z"/>
   <polygon class="fil1 str1" points="11530.42,14668.83 11751.99,14644.21 11752.51,14454.59 11530.67,14452.54 "/>
   <polygon class="fil1 str1" points="11784.92,14420.42 12005.83,14424.97 12006.66,14261.66 11786.6,14233.84 "/>
   <polygon class="fil1 str1" points="11785.38,14637.74 12005.99,14609.95 12006.81,14450.44 11790.05,14449.18 "/>
   <path class="fil0 str0" d="M9185.69 16438.7l-314.62 0 0 -710.46 314.62 0 0 260.3 160.17 0 0 -260.3 314.82 0 0 710.46 -314.82 0 0 -263.94 -160.17 0 0 263.94zm949.78 11.6c-101.55,0 -187.65,-35.59 -258.21,-106.78 -70.56,-71.19 -105.82,-158.12 -105.82,-260.43 0,-102.18 35.26,-188.64 105.82,-259.67 70.56,-70.85 156.66,-106.32 258.21,-106.32 101.71,0 187.98,35.47 258.53,106.32 70.56,71.03 105.83,157.49 105.83,259.67 0,102.31 -35.27,189.24 -105.83,260.43 -70.55,71.19 -156.82,106.78 -258.53,106.78zm0 -460.84c-20.19,0 -37.02,7 -50.38,21.15 -13.36,14.15 -20.02,31.95 -20.02,53.39 0,21.31 6.66,39.11 20.02,53.23 13.36,14.15 30.19,21.14 50.38,21.14 20.34,0 37.35,-6.99 50.7,-21.14 13.33,-14.12 20.02,-31.92 20.02,-53.23 0,-21.44 -6.69,-39.24 -20.02,-53.39 -13.35,-14.15 -30.36,-21.15 -50.7,-21.15zm474.82 449.24l0 -710.46 305.4 0 128.39 148.11 129.02 -148.11 304.94 0 0 710.46 -314.78 0 0 -355.61 -119.18 137.27 -119.18 -137.27 0 355.61 -314.61 0zm1594.91 -178.3l0 178.3 -589.69 0 0 -710.46 589.69 0 0 178.3 -275.54 0 0 88.03 191.79 0 0 178.3 -191.79 0 0 87.53 275.54 0z"/>
  </g>
 </g>
</svg>
